<?xml version="1.0" encoding="UTF-8"?>
<svg width="24px" height="24px" viewBox="0 0 24 24" version="1.1" xmlns="http://www.w3.org/2000/svg" xmlns:xlink="http://www.w3.org/1999/xlink">
    <!-- Generator: Sketch 54.1 (76490) - https://sketchapp.com -->
    <title>Artboard</title>
    <desc>Created with Sketch.</desc>
    <g id="Artboard" stroke="none" stroke-width="1" fill="none" fill-rule="evenodd">
        <path d="M2.74943362,3.81453958 C3.87584957,2.64620355 5.37607612,2 6.97100136,2 C8.5659266,2 10.0711373,2.64620355 11.2025374,3.81970921 L11.5713638,4.20226171 C11.6859991,4.32116317 11.8405075,4.38836834 12.0049841,4.38836834 L12.0049841,4.38836834 C12.1644767,4.38836834 12.3239692,4.32116317 12.4386044,4.20226171 L12.7974626,3.83004847 C13.9288627,2.65654281 15.4290893,2.01033926 17.0289986,2.01033926 C18.6239239,2.01033926 20.1241504,2.65654281 21.2505664,3.82487884 C22.3819665,4.99838449 23,6.55444265 23,8.20872375 C23,9.86300485 22.3769823,11.419063 21.2455822,12.5925687 L12.2840961,21.8875606 C12.139556,22.0374798 11.8753965,22.0374798 11.7258722,21.8875606 L2.75441776,12.5822294 C1.62301767,11.4087237 1,9.85266559 1,8.19838449 C1,6.54410339 1.62301767,4.98804523 2.74943362,3.81453958 Z" id="Path" stroke="#80CBBA" fill="#80CBBA" fill-rule="nonzero"></path>
    </g>
</svg>